<?xml version="1.0" encoding="UTF-8"?>
<svg width="1200" height="800" xmlns="http://www.w3.org/2000/svg">
    <!-- 背景 -->
    <rect width="1200" height="800" fill="#f9fafb"/>
    
    <!-- 顶部导航栏 -->
    <rect x="0" y="0" width="1200" height="60" fill="#1D2939" rx="0" ry="0"/>
    
    <!-- 应用图标 -->
    <rect x="20" y="15" width="30" height="30" fill="#165DFF" rx="4" ry="4"/>
    <text x="60" y="36" font-family="Arial" font-size="18" font-weight="bold" fill="white">PowerPlant Tool</text>
    
    <!-- 侧边导航菜单 -->
    <rect x="0" y="60" width="220" height="740" fill="#1D2939" rx="0" ry="0"/>
    
    <!-- 侧边菜单项 - 拓扑设计 (选中) -->
    <rect x="0" y="90" width="220" height="48" fill="#165DFF" rx="0" ry="0"/>
    <rect x="20" y="102" width="24" height="24" fill="white" rx="4" ry="4"/>
    <text x="60" y="120" font-family="Arial" font-size="15" font-weight="bold" fill="white">拓扑设计</text>
    
    <!-- 侧边菜单项 - 实时监控 -->
    <rect x="0" y="138" width="220" height="48" fill="#1D2939" rx="0" ry="0"/>
    <rect x="20" y="150" width="24" height="24" fill="#6B7280" rx="4" ry="4"/>
    <text x="60" y="168" font-family="Arial" font-size="15" font-weight="bold" fill="#E5E7EB">实时监控</text>
    
    <!-- 侧边菜单项 - 设备控制 -->
    <rect x="0" y="186" width="220" height="48" fill="#1D2939" rx="0" ry="0"/>
    <rect x="20" y="198" width="24" height="24" fill="#6B7280" rx="4" ry="4"/>
    <text x="60" y="216" font-family="Arial" font-size="15" font-weight="bold" fill="#E5E7EB">设备控制</text>
    
    <!-- 侧边菜单项 - 系统仿真 -->
    <rect x="0" y="234" width="220" height="48" fill="#1D2939" rx="0" ry="0"/>
    <rect x="20" y="246" width="24" height="24" fill="#6B7280" rx="4" ry="4"/>
    <text x="60" y="264" font-family="Arial" font-size="15" font-weight="bold" fill="#E5E7EB">系统仿真</text>
    
    <!-- 侧边菜单项 - 数据分析 -->
    <rect x="0" y="282" width="220" height="48" fill="#1D2939" rx="0" ry="0"/>
    <rect x="20" y="294" width="24" height="24" fill="#6B7280" rx="4" ry="4"/>
    <text x="60" y="312" font-family="Arial" font-size="15" font-weight="bold" fill="#E5E7EB">数据分析</text>
    

    
    <!-- 主内容区域 -->
    <rect x="230" y="80" width="950" height="700" fill="#f9fafb" rx="0" ry="0"/>
    
    <!-- 主内容标题 -->
    <text x="250" y="110" font-family="Arial" font-size="24" font-weight="bold" fill="#1F2937">拓扑设计模块</text>
    
    <!-- 工具栏 -->
    <rect x="250" y="130" width="910" height="40" fill="white" rx="6" ry="6" stroke="#E5E7EB" stroke-width="1"/>
    
    <!-- 核心操作按钮 -->
    <rect x="270" y="142" width="70" height="24" fill="#165DFF" rx="4" ry="4"/>
    <text x="305" y="157" font-family="Arial" font-size="12" font-weight="bold" fill="white" text-anchor="middle">新建</text>
    
    <rect x="350" y="142" width="70" height="24" fill="white" rx="4" ry="4" stroke="#D1D5DB" stroke-width="1"/>
    <text x="385" y="157" font-family="Arial" font-size="12" fill="#374151" text-anchor="middle">导入</text>
    
    <rect x="430" y="142" width="70" height="24" fill="white" rx="4" ry="4" stroke="#D1D5DB" stroke-width="1"/>
    <text x="465" y="157" font-family="Arial" font-size="12" fill="#374151" text-anchor="middle">保存</text>
    
    <rect x="510" y="142" width="70" height="24" fill="white" rx="4" ry="4" stroke="#D1D5DB" stroke-width="1"/>
    <text x="545" y="157" font-family="Arial" font-size="12" fill="#374151" text-anchor="middle">导出</text>
    
    <!-- 分隔线 -->
    <line x1="590" y1="142" x2="590" y2="166" stroke="#E5E7EB" stroke-width="1"/>
    
    <!-- 设计工具按钮 -->
    <rect x="610" y="142" width="90" height="24" fill="#165DFF" rx="4" ry="4"/>
    <text x="655" y="157" font-family="Arial" font-size="12" font-weight="bold" fill="white" text-anchor="middle">选择工具</text>
    
    <rect x="710" y="142" width="90" height="24" fill="white" rx="4" ry="4" stroke="#D1D5DB" stroke-width="1"/>
    <text x="755" y="157" font-family="Arial" font-size="12" fill="#374151" text-anchor="middle">连线工具</text>
    
    <rect x="810" y="142" width="90" height="24" fill="white" rx="4" ry="4" stroke="#D1D5DB" stroke-width="1"/>
    <text x="855" y="157" font-family="Arial" font-size="12" fill="#374151" text-anchor="middle">移动工具</text>
    
    <rect x="910" y="142" width="90" height="24" fill="white" rx="4" ry="4" stroke="#D1D5DB" stroke-width="1"/>
    <text x="955" y="157" font-family="Arial" font-size="12" fill="#374151" text-anchor="middle">删除</text>
    
    <!-- 分隔线 -->
    <line x1="1010" y1="142" x2="1010" y2="166" stroke="#E5E7EB" stroke-width="1"/>
    
    <!-- 视图控制 -->
    <rect x="1030" y="142" width="60" height="24" fill="white" rx="4" ry="4" stroke="#D1D5DB" stroke-width="1"/>
    <text x="1060" y="157" font-family="Arial" font-size="12" fill="#374151" text-anchor="middle">放大</text>
    
    <rect x="1100" y="142" width="60" height="24" fill="white" rx="4" ry="4" stroke="#D1D5DB" stroke-width="1"/>
    <text x="1130" y="157" font-family="Arial" font-size="12" fill="#374151" text-anchor="middle">缩小</text>
    
    <!-- 设备调色板 -->
    <rect x="250" y="190" width="220" height="600" fill="white" rx="6" ry="6" stroke="#E5E7EB" stroke-width="1"/>
    <text x="270" y="215" font-family="Arial" font-size="16" font-weight="bold" fill="#1F2937">设备调色板</text>
    
    <!-- 节点设备分类 -->
    <rect x="270" y="235" width="180" height="30" fill="#F3F4F6" rx="4" ry="4"/>
    <text x="360" y="255" font-family="Arial" font-size="14" font-weight="bold" fill="#374151" text-anchor="middle">节点设备</text>
    
    <!-- 母线 -->
    <rect x="270" y="270" width="50" height="50" fill="white" rx="6" ry="6" stroke="#E5E7EB" stroke-width="1"/>
    <g transform="translate(295, 295)">
        <!-- 母线 - 粗黑线 -->
        <line x1="-15" y1="0" x2="15" y2="0" stroke="#000000" stroke-width="4" />
        <!-- 连接点 -->
        <circle cx="-8" cy="0" r="2" fill="#000000" />
        <circle cx="0" cy="0" r="2" fill="#000000" />
        <circle cx="8" cy="0" r="2" fill="#000000" />
    </g>
    <text x="295" y="330" font-family="Arial" font-size="10" fill="#374151" text-anchor="middle">母线</text>
    
    <!-- 连接设备分类 -->
    <rect x="270" y="350" width="180" height="30" fill="#F3F4F6" rx="4" ry="4"/>
    <text x="360" y="370" font-family="Arial" font-size="14" font-weight="bold" fill="#374151" text-anchor="middle">连接设备</text>
    
    <!-- 线路 -->
    <rect x="270" y="390" width="50" height="50" fill="white" rx="6" ry="6" stroke="#E5E7EB" stroke-width="1"/>
    <g transform="translate(295, 415)">
        <!-- 输电线路 - 垂直线 -->
        <line x1="0" y1="-15" x2="0" y2="15" stroke="#000000" stroke-width="2" />
        <!-- 连接点 -->
        <circle cx="0" cy="-15" r="2" fill="#000000" />
        <circle cx="0" cy="15" r="2" fill="#000000" />
    </g>
    <text x="295" y="450" font-family="Arial" font-size="10" fill="#374151" text-anchor="middle">线路</text>
    
    <!-- 变压器 -->
    <rect x="330" y="390" width="50" height="50" fill="white" rx="6" ry="6" stroke="#E5E7EB" stroke-width="1"/>
    <g transform="translate(355, 415)">
        <!-- 变压器 - 两个相切的圆圈（垂直排列） -->
        <circle cx="0" cy="-8" r="6" fill="none" stroke="#000000" stroke-width="2" />
        <circle cx="0" cy="8" r="6" fill="none" stroke="#000000" stroke-width="2" />
        <!-- 连接线 - 高压侧（上方）和低压侧（下方） -->
        <line x1="0" y1="-18" x2="0" y2="-14" stroke="#000000" stroke-width="2" />
        <line x1="0" y1="14" x2="0" y2="18" stroke="#000000" stroke-width="2" />
    </g>
    <text x="355" y="450" font-family="Arial" font-size="10" fill="#374151" text-anchor="middle">变压器</text>
    
    <!-- 开关 -->
    <rect x="390" y="390" width="50" height="50" fill="white" rx="6" ry="6" stroke="#E5E7EB" stroke-width="1"/>
    <g transform="translate(415, 415)">
        <!-- 开关 - 断开的线段 -->
        <line x1="-15" y1="0" x2="-5" y2="0" stroke="#000000" stroke-width="2" />
        <line x1="5" y1="0" x2="15" y2="0" stroke="#000000" stroke-width="2" />
        <!-- 开关触点 -->
        <line x1="-5" y1="0" x2="2" y2="-5" stroke="#000000" stroke-width="2" />
        <!-- 触点圆圈 -->
        <circle cx="-5" cy="0" r="2" fill="#000000" />
        <circle cx="5" cy="0" r="2" fill="#000000" />
        <circle cx="2" cy="-5" r="3" fill="#000000" />
    </g>
    <text x="415" y="450" font-family="Arial" font-size="10" fill="#374151" text-anchor="middle">开关</text>
    
    <!-- 功率设备分类 -->
    <rect x="270" y="470" width="180" height="30" fill="#F3F4F6" rx="4" ry="4"/>
    <text x="360" y="490" font-family="Arial" font-size="14" font-weight="bold" fill="#374151" text-anchor="middle">功率设备</text>
    
    <!-- 光伏 -->
    <rect x="270" y="510" width="50" height="50" fill="white" rx="6" ry="6" stroke="#E5E7EB" stroke-width="1"/>
    <g transform="translate(295, 535)">
        <!-- 发电机 - 圆圈 -->
        <circle cx="0" cy="0" r="8" fill="none" stroke="#000000" stroke-width="2" />
        <!-- 连接线 -->
        <line x1="8" y1="0" x2="15" y2="0" stroke="#000000" stroke-width="2" />
    </g>
    <text x="295" y="570" font-family="Arial" font-size="10" fill="#374151" text-anchor="middle">光伏</text>
    
    <!-- 储能 -->
    <rect x="330" y="510" width="50" height="50" fill="white" rx="6" ry="6" stroke="#E5E7EB" stroke-width="1"/>
    <g transform="translate(355, 535)">
        <!-- 储能 - 电池形状 -->
        <rect x="-12" y="-8" width="24" height="16" fill="none" stroke="#000000" stroke-width="2" />
        <!-- 电池正极 -->
        <rect x="12" y="-4" width="4" height="8" fill="none" stroke="#000000" stroke-width="2" />
        <!-- 电量指示 -->
        <rect x="-10" y="-7" width="6" height="12" fill="#000000" />
        <rect x="-2" y="-7" width="6" height="12" fill="#000000" />
        <rect x="6" y="-7" width="4" height="12" fill="#000000" />
        <!-- 连接线 - 向上延伸 -->
        <line x1="0" y1="-8" x2="0" y2="-15" stroke="#000000" stroke-width="2" />
    </g>
    <text x="355" y="570" font-family="Arial" font-size="10" fill="#374151" text-anchor="middle">储能</text>
    
    <!-- 负载 -->
    <rect x="390" y="510" width="50" height="50" fill="white" rx="6" ry="6" stroke="#E5E7EB" stroke-width="1"/>
    <g transform="translate(415, 535)">
        <!-- 负载 - 三角形 -->
        <path d="M0,-8 L-6,6 L6,6 Z" fill="none" stroke="#000000" stroke-width="2" />
        <!-- 连接线 -->
        <line x1="0" y1="-8" x2="0" y2="-15" stroke="#000000" stroke-width="2" />
    </g>
    <text x="415" y="570" font-family="Arial" font-size="10" fill="#374151" text-anchor="middle">负载</text>
    
    <!-- 充电桩 -->
    <rect x="270" y="590" width="50" height="50" fill="white" rx="6" ry="6" stroke="#E5E7EB" stroke-width="1"/>
    <g transform="translate(295, 615)">
        <!-- 充电桩 - 矩形主体 -->
        <rect x="-8" y="-5" width="16" height="10" fill="none" stroke="#000000" stroke-width="2" />
        <!-- 充电插头 -->
        <rect x="-4" y="-9" width="8" height="4" fill="none" stroke="#000000" stroke-width="2" />
        <!-- 充电线 - 调整到合适长度的正极线头 -->
        <line x1="0" y1="-9" x2="0" y2="-15" stroke="#000000" stroke-width="2" />
    </g>
    <text x="295" y="650" font-family="Arial" font-size="10" fill="#374151" text-anchor="middle">充电桩</text>
    
    <!-- 测量设备分类 -->
    <rect x="270" y="670" width="180" height="30" fill="#F3F4F6" rx="4" ry="4"/>
    <text x="360" y="690" font-family="Arial" font-size="14" font-weight="bold" fill="#374151" text-anchor="middle">测量设备</text>
    
    <!-- 电表 -->
    <rect x="270" y="710" width="50" height="50" fill="white" rx="6" ry="6" stroke="#E5E7EB" stroke-width="1"/>
    <g transform="translate(295, 735)">
        <!-- 电表外框 - 简化设计，与其他设备图标风格一致 -->
        <rect x="-10" y="-8" width="20" height="12" fill="none" stroke="#000000" stroke-width="2" rx="1" ry="1"/>
        
        <!-- 简化的显示屏 -->
        <rect x="-8" y="-6" width="16" height="6" fill="none" stroke="#000000" stroke-width="1"/>
        
        <!-- 简化的测量标识 -->
        <circle cx="-5" cy="4" r="1.5" fill="#000000"/>
        <circle cx="0" cy="4" r="1.5" fill="#000000"/>
        <circle cx="5" cy="4" r="1.5" fill="#000000"/>
        
        <!-- 连接端子 -->
        <rect x="-5" y="8" width="2" height="2" fill="#000000"/>
        <rect x="5" y="8" width="2" height="2" fill="#000000"/>
        
        <!-- 连接线 - 向上延伸 -->
        <line x1="0" y1="-8" x2="0" y2="-12" stroke="#000000" stroke-width="2"/>
    </g>
    <text x="295" y="770" font-family="Arial" font-size="10" fill="#374151" text-anchor="middle">电表</text>
    
    <!-- 拓扑画布 -->
    <rect x="490" y="190" width="470" height="550" fill="white" rx="6" ry="6" stroke="#E5E7EB" stroke-width="1"/>
    <text x="510" y="215" font-family="Arial" font-size="16" font-weight="bold" fill="#374151">拓扑画布</text>
    
    <!-- 画布网格 -->
    <g opacity="0.1">
        <pattern id="topology-grid" width="20" height="20" patternUnits="userSpaceOnUse">
            <path d="M 20 0 L 0 0 0 20" fill="none" stroke="#9CA3AF" stroke-width="0.5"/>
        </pattern>
        <rect x="510" y="230" width="430" height="510" fill="url(#topology-grid)"/>
    </g>
    
    <!-- 示例拓扑图 - 多种设备连接 -->
    <!-- 母线 -->
    <g transform="translate(580, 300)">
        <line x1="-15" y1="0" x2="15" y2="0" stroke="#000000" stroke-width="6" />
        <!-- 连接点 -->
        <circle cx="-10" cy="0" r="2" fill="white" />
        <circle cx="0" cy="0" r="2" fill="white" />
        <circle cx="10" cy="0" r="2" fill="white" />
    </g>
    <text x="580" y="315" font-family="Arial" font-size="12" font-weight="bold" fill="#374151" text-anchor="middle">Bus1</text>
    
    <rect x="685" y="285" width="30" height="30" fill="#6366F1" rx="4" ry="4"/>
    <text x="700" y="303" font-family="Arial" font-size="14" font-weight="bold" fill="white" text-anchor="middle">B</text>
    <text x="700" y="315" font-family="Arial" font-size="12" font-weight="bold" fill="#374151" text-anchor="middle">Bus2</text>
    
    <rect x="625" y="385" width="30" height="30" fill="#6366F1" rx="4" ry="4"/>
    <text x="640" y="403" font-family="Arial" font-size="14" font-weight="bold" fill="white" text-anchor="middle">B</text>
    <text x="640" y="415" font-family="Arial" font-size="12" font-weight="bold" fill="#374151" text-anchor="middle">Bus3</text>
    
    <!-- 线路连接 -->
    <line x1="580" y1="315" x2="625" y2="385" stroke="#6366F1" stroke-width="2" />
    <line x1="715" y1="300" x2="655" y2="385" stroke="#6366F1" stroke-width="2" />
    
    <!-- 变压器 -->
    <rect x="500" y="280" width="30" height="30" fill="#F59E0B" rx="4" ry="4"/>
    <line x1="505" y1="295" x2="525" y2="295" stroke="white" stroke-width="3"/>
    <line x1="505" y1="305" x2="525" y2="305" stroke="white" stroke-width="3"/>
    <text x="515" y="315" font-family="Arial" font-size="12" font-weight="bold" fill="#374151" text-anchor="middle">T1</text>
    <line x1="515" y1="310" x2="560" y2="300" stroke="#6366F1" stroke-width="2" />
    
    <!-- 开关 -->
    <rect x="750" y="280" width="30" height="30" fill="#EC4899" rx="4" ry="4"/>
    <rect x="755" y="290" width="20" height="10" fill="white" rx="2" ry="2"/>
    <text x="765" y="315" font-family="Arial" font-size="12" font-weight="bold" fill="#374151" text-anchor="middle">SW1</text>
    <line x1="715" y1="300" x2="745" y2="300" stroke="#6366F1" stroke-width="2" />
    
    <!-- 光伏设备 -->
    <g transform="translate(595, 450)">
        <!-- 发电机 - 圆圈 -->
        <circle cx="0" cy="0" r="8" fill="none" stroke="#000000" stroke-width="2" />
        <!-- 连接线 -->
        <line x1="8" y1="0" x2="15" y2="0" stroke="#000000" stroke-width="2" />
    </g>
    <text x="595" y="490" font-family="Arial" font-size="12" font-weight="bold" fill="#374151" text-anchor="middle">PV</text>
    <line x1="595" y1="430" x2="595" y2="410" stroke="#6366F1" stroke-width="2" />
    <line x1="595" y1="410" x2="625" y2="410" stroke="#6366F1" stroke-width="2" />
    <line x1="625" y1="410" x2="625" y2="400" stroke="#6366F1" stroke-width="2" />
    
    <!-- 储能设备 -->
    <g transform="translate(695, 445)">
        <!-- 储能 - 电池形状 -->
        <rect x="-12" y="-8" width="24" height="16" fill="none" stroke="#000000" stroke-width="2" />
        <!-- 电池正极 -->
        <rect x="12" y="-4" width="4" height="8" fill="none" stroke="#000000" stroke-width="2" />
        <!-- 电量指示 -->
        <rect x="-10" y="-7" width="6" height="12" fill="#000000" />
        <rect x="-2" y="-7" width="6" height="12" fill="#000000" />
        <rect x="6" y="-7" width="4" height="12" fill="#000000" />
    </g>
    <text x="695" y="490" font-family="Arial" font-size="12" font-weight="bold" fill="#374151" text-anchor="middle">BESS</text>
    <line x1="695" y1="430" x2="695" y2="410" stroke="#6366F1" stroke-width="2" />
    <line x1="695" y1="410" x2="655" y2="410" stroke="#6366F1" stroke-width="2" />
    <line x1="655" y1="410" x2="655" y2="400" stroke="#6366F1" stroke-width="2" />
    
    <!-- 负载 -->
    <g transform="translate(595, 515)">
        <!-- 负载 - 三角形 -->
        <path d="M0,-8 L-6,6 L6,6 Z" fill="none" stroke="#000000" stroke-width="2" />
    </g>
    <text x="595" y="550" font-family="Arial" font-size="12" font-weight="bold" fill="#374151" text-anchor="middle">Load</text>
    <line x1="595" y1="500" x2="595" y2="470" stroke="#6366F1" stroke-width="2" />
    <line x1="595" y1="470" x2="595" y2="460" stroke="#6366F1" stroke-width="2" />
    
    <!-- 充电桩 -->
    <g transform="translate(695, 530)">
        <!-- 充电桩 - 矩形主体 -->
        <rect x="-8" y="-5" width="16" height="10" fill="none" stroke="#000000" stroke-width="2" />
        <!-- 充电插头 -->
        <rect x="-4" y="-9" width="8" height="4" fill="none" stroke="#000000" stroke-width="2" />
    </g>
    <text x="695" y="550" font-family="Arial" font-size="12" font-weight="bold" fill="#374151" text-anchor="middle">Charger</text>
    <line x1="695" y1="500" x2="695" y2="470" stroke="#6366F1" stroke-width="2" />
    <line x1="695" y1="470" x2="695" y2="460" stroke="#6366F1" stroke-width="2" />
    
    <!-- 电表 -->
    <g transform="translate(655, 235)">
        <!-- 电表外框 - 简化设计 -->
        <rect x="-10" y="-8" width="20" height="12" fill="none" stroke="#000000" stroke-width="2" rx="1" ry="1"/>
        
        <!-- 简化的显示屏 -->
        <rect x="-8" y="-6" width="16" height="6" fill="none" stroke="#000000" stroke-width="1"/>
        
        <!-- 简化的测量标识 -->
        <circle cx="-5" cy="4" r="1.5" fill="#000000"/>
        <circle cx="0" cy="4" r="1.5" fill="#000000"/>
        <circle cx="5" cy="4" r="1.5" fill="#000000"/>
    </g>
    <text x="655" y="260" font-family="Arial" font-size="12" font-weight="bold" fill="#374151" text-anchor="middle">Meter</text>
    <line x1="655" y1="250" x2="655" y2="270" stroke="#6366F1" stroke-width="2" />
    <line x1="655" y1="270" x2="655" y2="285" stroke="#6366F1" stroke-width="2" />
    
    <!-- 连接线 -->
    <line x1="600" y1="300" x2="680" y2="300" stroke="#10B981" stroke-width="3"/>
    <line x1="590" y1="320" x2="630" y2="380" stroke="#10B981" stroke-width="3"/>
    <line x1="650" y1="420" x2="690" y2="320" stroke="#10B981" stroke-width="3"/>
    
    <!-- 设备连接 -->
    <g transform="translate(550, 310)">
        <!-- 开关 - 断开的线段 -->
        <line x1="-15" y1="0" x2="-5" y2="0" stroke="#000000" stroke-width="4" />
        <line x1="5" y1="0" x2="15" y2="0" stroke="#000000" stroke-width="4" />
        <!-- 开关触点 -->
        <line x1="5" y1="-5" x2="5" y2="5" stroke="#000000" stroke-width="2" />
        <line x1="15" y1="-5" x2="15" y2="5" stroke="#000000" stroke-width="2" />
        <!-- 触点圆圈 -->
        <circle cx="5" cy="0" r="3" fill="#000000" />
    </g>
    <text x="550" y="330" font-family="Arial" font-size="10" font-weight="bold" fill="#374151" text-anchor="middle">Switch</text>
    
    <!-- 变压器 -->
    <g transform="translate(750, 300)">
        <!-- 变压器 - 上下两个相切的圆圈 -->
        <circle cx="0" cy="-6" r="6" fill="none" stroke="#000000" stroke-width="2" />
        <circle cx="0" cy="6" r="6" fill="none" stroke="#000000" stroke-width="2" />
        <!-- 连接线 -->
        <line x1="0" y1="-12" x2="0" y2="-18" stroke="#000000" stroke-width="2" />
        <line x1="0" y1="12" x2="0" y2="18" stroke="#000000" stroke-width="2" />
    </g>
    <text x="770" y="305" font-family="Arial" font-size="10" fill="#374151">Transformer</text>
    
    <!-- 发电机 -->
    <g transform="translate(730, 410)">
        <!-- 发电机 - 圆圈 -->
        <circle cx="0" cy="0" r="8" fill="none" stroke="#000000" stroke-width="2" />
        <!-- 连接线 -->
        <line x1="8" y1="0" x2="15" y2="0" stroke="#000000" stroke-width="2" />
    </g>
    <text x="750" y="425" font-family="Arial" font-size="10" fill="#374151">Generator</text>
    
    <!-- 属性面板 -->
    <rect x="980" y="190" width="200" height="300" fill="white" rx="6" ry="6" stroke="#E5E7EB" stroke-width="1"/>
    <text x="1000" y="215" font-family="Arial" font-size="16" font-weight="bold" fill="#1F2937">属性编辑</text>
    
    <!-- 属性表单 -->
    <text x="1000" y="240" font-family="Arial" font-size="12" fill="#6B7280">设备类型:</text>
    <text x="1100" y="240" font-family="Arial" font-size="12" fill="#374151" font-weight="bold">母线</text>
    
    <text x="1000" y="265" font-family="Arial" font-size="12" fill="#6B7280">名称:</text>
    <rect x="1060" y="255" width="120" height="20" fill="#F3F4F6" rx="3" ry="3" stroke="#D1D5DB" stroke-width="1"/>
    <text x="1120" y="268" font-family="Arial" font-size="10" fill="#374151" text-anchor="middle">Bus1</text>
    
    <text x="1000" y="290" font-family="Arial" font-size="12" fill="#6B7280">电压等级:</text>
    <rect x="1060" y="280" width="120" height="20" fill="#F3F4F6" rx="3" ry="3" stroke="#D1D5DB" stroke-width="1"/>
    <text x="1120" y="293" font-family="Arial" font-size="10" fill="#374151" text-anchor="middle">110kV</text>
    
    <text x="1000" y="315" font-family="Arial" font-size="12" fill="#6B7280">位置:</text>
    <text x="1100" y="315" font-family="Arial" font-size="12" fill="#374151">X:580, Y:300</text>
    
    <!-- 层管理面板 -->
    <rect x="980" y="510" width="200" height="230" fill="white" rx="6" ry="6" stroke="#E5E7EB" stroke-width="1"/>
    <text x="1000" y="535" font-family="Arial" font-size="16" font-weight="bold" fill="#1F2937">层管理</text>
    
    <!-- 层列表 -->
    <rect x="1000" y="555" width="160" height="24" fill="#F3F4F6" rx="3" ry="3"/>
    <text x="1020" y="571" font-family="Arial" font-size="12" fill="#374151">主网络层</text>
    <circle cx="1150" cy="567" r="6" fill="#165DFF"/>
    
    <rect x="1000" y="585" width="160" height="24" fill="#F3F4F6" rx="3" ry="3"/>
    <text x="1020" y="601" font-family="Arial" font-size="12" fill="#374151">设备层</text>
    <circle cx="1150" cy="597" r="6" fill="#10B981"/>
    
    <rect x="1000" y="615" width="160" height="24" fill="#F3F4F6" rx="3" ry="3"/>
    <text x="1020" y="631" font-family="Arial" font-size="12" fill="#374151">连接线层</text>
    <circle cx="1150" cy="627" r="6" fill="#EF4444"/>
    
    <!-- 操作按钮 -->
    <rect x="1000" y="650" width="80" height="24" fill="#165DFF" rx="4" ry="4"/>
    <text x="1040" y="665" font-family="Arial" font-size="12" font-weight="bold" fill="white" text-anchor="middle">添加层</text>
    
    <rect x="1090" y="650" width="70" height="24" fill="white" rx="4" ry="4" stroke="#D1D5DB" stroke-width="1"/>
    <text x="1125" y="665" font-family="Arial" font-size="12" fill="#374151" text-anchor="middle">删除层</text>
    
    <!-- 操作日志 - 放在拓扑画布下方，显示多条记录 -->
    <rect x="490" y="750" width="470" height="60" fill="white" rx="6" ry="6" stroke="#E5E7EB" stroke-width="1"/>
    <text x="520" y="770" font-family="Arial" font-size="12" font-weight="bold" fill="#374151">操作日志:</text>
    <text x="520" y="790" font-family="Arial" font-size="11" fill="#6B7280">[10:30:25] 添加光伏设备 (ID: PV001)</text>
    <text x="520" y="810" font-family="Arial" font-size="11" fill="#6B7280">[10:31:12] 删除线路连接 (Bus1 - Bus2)</text>
    <text x="520" y="830" font-family="Arial" font-size="11" fill="#6B7280">[10:32:45] 更新设备属性 (储能1: 容量=100kWh)</text>
    <text x="520" y="850" font-family="Arial" font-size="11" fill="#6B7280">[10:33:58] 添加充电桩设备 (ID: CH001)</text>
</svg>
